<svg xmlns="http://www.w3.org/2000/svg" viewBox="0 0 820 490" role="img">
<title>Normalized learning curves: humans</title>
<rect width="820" height="490" fill="white"/>
<g font-family="Arial, sans-serif" font-size="14" fill="#475569">
<text x="65" y="24">Normalized score (% of reference ceiling)</text>
<path d="M65 335.0 H790" stroke="#e2e8f0"/>
<text x="52" y="340.0" text-anchor="end">0</text>
<path d="M65 265.0 H790" stroke="#e2e8f0"/>
<text x="52" y="270.0" text-anchor="end">25</text>
<path d="M65 195.0 H790" stroke="#e2e8f0"/>
<text x="52" y="200.0" text-anchor="end">50</text>
<path d="M65 125.0 H790" stroke="#e2e8f0"/>
<text x="52" y="130.0" text-anchor="end">75</text>
<path d="M65 55.0 H790" stroke="#e2e8f0"/>
<text x="52" y="60.0" text-anchor="end">100</text>
<text x="65" y="358" text-anchor="middle">0%</text>
<text x="427.5" y="358" text-anchor="middle">50%</text>
<text x="790" y="358" text-anchor="middle">100%</text>
<text x="427" y="383" text-anchor="middle">Progress through the evaluation window</text>
<polyline points="65.00,218.58 145.56,200.85 226.11,179.03 306.67,173.49 387.22,166.76 467.78,157.68 548.33,138.03 628.89,135.07 709.44,135.54 790.00,133.10" fill="none" stroke="#0047ab" stroke-width="2.4"/>
<circle cx="65.00" cy="218.58" r="3" fill="#0047ab"/>
<circle cx="145.56" cy="200.85" r="3" fill="#0047ab"/>
<circle cx="226.11" cy="179.03" r="3" fill="#0047ab"/>
<circle cx="306.67" cy="173.49" r="3" fill="#0047ab"/>
<circle cx="387.22" cy="166.76" r="3" fill="#0047ab"/>
<circle cx="467.78" cy="157.68" r="3" fill="#0047ab"/>
<circle cx="548.33" cy="138.03" r="3" fill="#0047ab"/>
<circle cx="628.89" cy="135.07" r="3" fill="#0047ab"/>
<circle cx="709.44" cy="135.54" r="3" fill="#0047ab"/>
<circle cx="790.00" cy="133.10" r="3" fill="#0047ab"/>
<path d="M65 416 h22" stroke="#0047ab" stroke-width="3"/>
<text x="95" y="421">OpenCode · Opus 5.5</text>
<polyline points="65.00,244.98 145.56,213.39 226.11,193.94 306.67,188.50 387.22,183.54 467.78,177.16 548.33,169.18 628.89,163.17 709.44,154.36 790.00,148.92" fill="none" stroke="#2563eb" stroke-width="2.4"/>
<circle cx="65.00" cy="244.98" r="3" fill="#2563eb"/>
<circle cx="145.56" cy="213.39" r="3" fill="#2563eb"/>
<circle cx="226.11" cy="193.94" r="3" fill="#2563eb"/>
<circle cx="306.67" cy="188.50" r="3" fill="#2563eb"/>
<circle cx="387.22" cy="183.54" r="3" fill="#2563eb"/>
<circle cx="467.78" cy="177.16" r="3" fill="#2563eb"/>
<circle cx="548.33" cy="169.18" r="3" fill="#2563eb"/>
<circle cx="628.89" cy="163.17" r="3" fill="#2563eb"/>
<circle cx="709.44" cy="154.36" r="3" fill="#2563eb"/>
<circle cx="790.00" cy="148.92" r="3" fill="#2563eb"/>
<path d="M310 416 h22" stroke="#2563eb" stroke-width="3"/>
<text x="340" y="421">OpenCode · Opus 5</text>
<polyline points="65.00,223.29 145.56,200.08 226.11,193.39 306.67,194.68 387.22,192.11 467.78,191.39 548.33,180.12 628.89,181.52 709.44,180.43 790.00,173.15" fill="none" stroke="#15803d" stroke-width="2.4"/>
<circle cx="65.00" cy="223.29" r="3" fill="#15803d"/>
<circle cx="145.56" cy="200.08" r="3" fill="#15803d"/>
<circle cx="226.11" cy="193.39" r="3" fill="#15803d"/>
<circle cx="306.67" cy="194.68" r="3" fill="#15803d"/>
<circle cx="387.22" cy="192.11" r="3" fill="#15803d"/>
<circle cx="467.78" cy="191.39" r="3" fill="#15803d"/>
<circle cx="548.33" cy="180.12" r="3" fill="#15803d"/>
<circle cx="628.89" cy="181.52" r="3" fill="#15803d"/>
<circle cx="709.44" cy="180.43" r="3" fill="#15803d"/>
<circle cx="790.00" cy="173.15" r="3" fill="#15803d"/>
<path d="M555 416 h22" stroke="#15803d" stroke-width="3"/>
<text x="585" y="421">EvoTest · Opus 5</text>
<polyline points="65.00,238.85 145.56,209.75 226.11,213.15 306.67,187.97 387.22,172.43 467.78,160.51 548.33,143.05 628.89,152.27 709.44,155.65 790.00,151.63" fill="none" stroke="#292524" stroke-width="2.4"/>
<circle cx="65.00" cy="238.85" r="3" fill="#292524"/>
<circle cx="145.56" cy="209.75" r="3" fill="#292524"/>
<circle cx="226.11" cy="213.15" r="3" fill="#292524"/>
<circle cx="306.67" cy="187.97" r="3" fill="#292524"/>
<circle cx="387.22" cy="172.43" r="3" fill="#292524"/>
<circle cx="467.78" cy="160.51" r="3" fill="#292524"/>
<circle cx="548.33" cy="143.05" r="3" fill="#292524"/>
<circle cx="628.89" cy="152.27" r="3" fill="#292524"/>
<circle cx="709.44" cy="155.65" r="3" fill="#292524"/>
<circle cx="790.00" cy="151.63" r="3" fill="#292524"/>
<path d="M65 443 h22" stroke="#292524" stroke-width="3"/>
<text x="95" y="448">Human Top-1</text>
<polyline points="65.00,245.95 145.56,220.68 226.11,211.59 306.67,202.15 387.22,191.12 467.78,179.78 548.33,168.34 628.89,167.33 709.44,165.98 790.00,155.76" fill="none" stroke="#78716c" stroke-width="2.4" stroke-dasharray="8 5"/>
<circle cx="65.00" cy="245.95" r="3" fill="#78716c"/>
<circle cx="145.56" cy="220.68" r="3" fill="#78716c"/>
<circle cx="226.11" cy="211.59" r="3" fill="#78716c"/>
<circle cx="306.67" cy="202.15" r="3" fill="#78716c"/>
<circle cx="387.22" cy="191.12" r="3" fill="#78716c"/>
<circle cx="467.78" cy="179.78" r="3" fill="#78716c"/>
<circle cx="548.33" cy="168.34" r="3" fill="#78716c"/>
<circle cx="628.89" cy="167.33" r="3" fill="#78716c"/>
<circle cx="709.44" cy="165.98" r="3" fill="#78716c"/>
<circle cx="790.00" cy="155.76" r="3" fill="#78716c"/>
<path d="M310 443 h22" stroke="#78716c" stroke-width="3" stroke-dasharray="8 5"/>
<text x="340" y="448">Human Top-3</text>
<polyline points="65.00,251.52 145.56,225.80 226.11,214.53 306.67,203.21 387.22,194.13 467.78,190.36 548.33,173.54 628.89,175.24 709.44,178.09 790.00,163.36" fill="none" stroke="#a16207" stroke-width="2.4" stroke-dasharray="2 4"/>
<circle cx="65.00" cy="251.52" r="3" fill="#a16207"/>
<circle cx="145.56" cy="225.80" r="3" fill="#a16207"/>
<circle cx="226.11" cy="214.53" r="3" fill="#a16207"/>
<circle cx="306.67" cy="203.21" r="3" fill="#a16207"/>
<circle cx="387.22" cy="194.13" r="3" fill="#a16207"/>
<circle cx="467.78" cy="190.36" r="3" fill="#a16207"/>
<circle cx="548.33" cy="173.54" r="3" fill="#a16207"/>
<circle cx="628.89" cy="175.24" r="3" fill="#a16207"/>
<circle cx="709.44" cy="178.09" r="3" fill="#a16207"/>
<circle cx="790.00" cy="163.36" r="3" fill="#a16207"/>
<path d="M555 443 h22" stroke="#a16207" stroke-width="3" stroke-dasharray="2 4"/>
<text x="585" y="448">Human Top-5</text>
</g></svg>